<svg width="51" height="44" viewBox="0 0 51 44" fill="none" xmlns="http://www.w3.org/2000/svg">
<path d="M43.8878 21.9996C43.8878 16.3774 41.7746 10.7746 37.4901 6.49009C28.9211 -2.0789 15.0595 -2.05951 6.49052 6.50948C-2.07847 15.0785 -2.09786 28.9401 6.47113 37.5091C13.7024 44.7403 24.6754 45.826 33.0893 40.863L29.0568 36.8305C22.95 39.7579 15.4085 38.6916 10.3485 33.6317C3.93145 27.2146 3.93145 16.7845 10.3485 10.3675C16.7655 3.95041 27.1957 3.95041 33.6127 10.3675C36.8309 13.5857 38.3625 17.7926 38.3431 21.9996L30.5 21.9996L41.5 35.5L51 21.9996L43.8878 21.9996Z" fill="#8D8D8D"/>
</svg>
